<svg viewBox="-16 -16 432.00 432.00" fill="none" xmlns="http://www.w3.org/2000/svg"><g id="SVGRepo_bgCarrier" stroke-width="0"><path transform="translate(-16, -16), scale(27)" fill="#ffffff" d="M9.166.33a2.25 2.25 0 00-2.332 0l-5.25 3.182A2.25 2.25 0 00.5 5.436v5.128a2.25 2.25 0 001.084 1.924l5.25 3.182a2.25 2.25 0 002.332 0l5.25-3.182a2.25 2.25 0 001.084-1.924V5.436a2.25 2.25 0 00-1.084-1.924L9.166.33z" strokewidth="0"></path></g><g id="SVGRepo_tracerCarrier" stroke-linecap="round" stroke-linejoin="round" stroke="#8f8f8f" stroke-width="4.8"></g><g id="SVGRepo_iconCarrier"> <path d="M80.7608 270.804C55.6591 224.521 81.8607 208.301 88.4823 173.723C99.8312 114.459 21.6714 170.36 97.5614 173.147C160.642 175.463 230.96 171.145 299.572 167.156C380.772 162.435 295.6 120.103 309.786 168.079C316.712 191.501 343.035 245.969 317.957 270.804C297.951 282.092 125.667 276.448 104.37 274.19" stroke="#000000" stroke-opacity="0.9" stroke-width="16" stroke-linecap="round" stroke-linejoin="round"></path> <path d="M134.15 229.865C148.079 230.524 267.705 218.656 267.705 226.127C267.705 258.982 176.42 267.71 148.765 249.072" stroke="#000000" stroke-opacity="0.9" stroke-width="16" stroke-linecap="round" stroke-linejoin="round"></path> <path d="M106.821 232.302C110.419 217.04 112.217 208.047 112.217 205.321" stroke="#000000" stroke-opacity="0.9" stroke-width="16" stroke-linecap="round" stroke-linejoin="round"></path> <path d="M294.325 232.302C294.51 226.781 292.715 216.888 288.941 202.623" stroke="#000000" stroke-opacity="0.9" stroke-width="16" stroke-linecap="round" stroke-linejoin="round"></path> <path d="M86.0244 281.658C67.9336 322.495 134.378 335.111 125.176 287.37" stroke="#000000" stroke-opacity="0.9" stroke-width="16" stroke-linecap="round" stroke-linejoin="round"></path> <path d="M278.498 290.055C278.271 331.84 326.627 322.844 316.127 274.913" stroke="#000000" stroke-opacity="0.9" stroke-width="16" stroke-linecap="round" stroke-linejoin="round"></path> <path d="M100.424 161.593C111.134 140.332 112.062 105.339 131.918 89.6419C143.292 80.6482 252.188 79.2684 268.318 87.2386C286.529 96.2368 297.069 140.048 300.082 157.898" stroke="#000000" stroke-opacity="0.9" stroke-width="16" stroke-linecap="round" stroke-linejoin="round"></path> <path d="M225.385 105.117C256.488 72.5435 286.462 132.377 238.616 140.901C234.181 141.689 224.674 141.898 221.678 137.787C215.945 129.921 215.26 116.049 217.976 107.19" stroke="#000000" stroke-opacity="0.9" stroke-width="16" stroke-linecap="round" stroke-linejoin="round"></path> <path d="M212.395 164.993C221.58 126.943 266.116 124.381 266.116 168.741" stroke="#000000" stroke-opacity="0.9" stroke-width="16" stroke-linecap="round" stroke-linejoin="round"></path> <path d="M140.896 169.006C150.081 141.609 194.617 139.765 194.617 171.704" stroke="#000000" stroke-opacity="0.9" stroke-width="16" stroke-linecap="round" stroke-linejoin="round"></path> <path d="M165.722 101.492C217.005 92.8303 172.681 180.892 149.425 128.847C145.253 119.509 149.028 111.211 154.255 106.356" stroke="#000000" stroke-opacity="0.9" stroke-width="16" stroke-linecap="round" stroke-linejoin="round"></path> </g></svg>